HIERARCHY
ROOT root
{
	OFFSET	0	13.1	24.9
	CHANNELS 6  Xposition Yposition Zposition Xrotation Yrotation Zrotation
	JOINT spine_1
	{
		OFFSET	0	9.99999	0
		CHANNELS 3  Xrotation Yrotation Zrotation
		JOINT spine_2
		{
			OFFSET	0	112	-10
			CHANNELS 3  Xrotation Yrotation Zrotation
			JOINT spine_3
			{
				OFFSET	0	206.5	19.3
				CHANNELS 3  Xrotation Yrotation Zrotation
				JOINT spine_4
				{
					OFFSET	0	110.4	14.6
					CHANNELS 3  Xrotation Yrotation Zrotation
					JOINT neck_1
					{
						OFFSET	0	71.8	-50.3
						CHANNELS 3  Xrotation Yrotation Zrotation
						JOINT neck_2
						{
							OFFSET	0	86.2	-25.8
							CHANNELS 3  Xrotation Yrotation Zrotation
							JOINT head_ee
							{
								OFFSET	0	179.8	-8.7
								CHANNELS 3  Xrotation Yrotation Zrotation
								End Site
								{
									OFFSET	1	0	0
								}
							}
						}
					}
					JOINT left_clavicle
					{
						OFFSET	-43.2	22.4	-70.8
						CHANNELS 3  Xrotation Yrotation Zrotation
						JOINT left_shoulder
						{
							OFFSET	-93.9	-5.79999	48.7
							CHANNELS 3  Xrotation Yrotation Zrotation
							JOINT left_elbow
							{
								OFFSET	-291.4	-30.8	15.2
								CHANNELS 3  Xrotation Yrotation Zrotation
								JOINT left_lowarm_twist
								{
									OFFSET	-110.7	-3.89999	13.6
									CHANNELS 3  Xrotation Yrotation Zrotation
									JOINT left_hand
									{
										OFFSET	-110.7	-3.89999	13.6
										CHANNELS 3  Xrotation Yrotation Zrotation
										JOINT left_ee
										{
											OFFSET	-80.8	-5.10001	12.1
											CHANNELS 3  Xrotation Yrotation Zrotation
											End Site
											{
												OFFSET	1	0	0
											}
										}
									}
								}
							}
						}
					}
					JOINT right_clavicle
					{
						OFFSET	43.2	22.4	-70.8
						CHANNELS 3  Xrotation Yrotation Zrotation
						JOINT right_shoulder
						{
							OFFSET	93.9	-5.79999	48.7
							CHANNELS 3  Xrotation Yrotation Zrotation
							JOINT right_elbow
							{
								OFFSET	291.4	-30.8	15.2
								CHANNELS 3  Xrotation Yrotation Zrotation
								JOINT right_lowarm_twist
								{
									OFFSET	110.7	-3.89999	13.6
									CHANNELS 3  Xrotation Yrotation Zrotation
									JOINT right_hand
									{
										OFFSET	110.7	-3.89999	13.6
										CHANNELS 3  Xrotation Yrotation Zrotation
										JOINT right_ee
										{
											OFFSET	80.8	-5.10001	12.1
											CHANNELS 3  Xrotation Yrotation Zrotation
											End Site
											{
												OFFSET	1	0	0
											}
										}
									}
								}
							}
						}
					}
				}
			}
		}
	}
	JOINT left_hip
	{
		OFFSET	-82.8	-127.5	0.300001
		CHANNELS 3  Xrotation Yrotation Zrotation
		JOINT left_knee
		{
			OFFSET	-28.2	-396.7	2.2
			CHANNELS 3  Xrotation Yrotation Zrotation
			JOINT left_ankle
			{
				OFFSET	-11.7	-411.3	35.4
				CHANNELS 3  Xrotation Yrotation Zrotation
				JOINT left_toes
				{
					OFFSET	0	-60	-88.6
					CHANNELS 3  Xrotation Yrotation Zrotation
					JOINT left_foot_ee
					{
						OFFSET	-22.5	-16.5	-42.2
						CHANNELS 3  Xrotation Yrotation Zrotation
						End Site
						{
							OFFSET	1	0	0
						}
					}
				}
			}
		}
	}
	JOINT right_hip
	{
		OFFSET	82.8	-127.5	0.300001
		CHANNELS 3  Xrotation Yrotation Zrotation
		JOINT right_knee
		{
			OFFSET	28.2	-396.7	2.2
			CHANNELS 3  Xrotation Yrotation Zrotation
			JOINT right_ankle
			{
				OFFSET	11.7	-411.3	35.4
				CHANNELS 3  Xrotation Yrotation Zrotation
				JOINT right_toes
				{
					OFFSET	0	-60	-88.6
					CHANNELS 3  Xrotation Yrotation Zrotation
					JOINT right_foot_ee
					{
						OFFSET	22.5	-16.5	-42.2
						CHANNELS 3  Xrotation Yrotation Zrotation
						End Site
						{
							OFFSET	1	0	0
						}
					}
				}
			}
		}
	}
}
MOTION
Frames: 8
Frame Time: 0.02
2858.10854003 702.44 -1633.00036511 -49.4726234679 83.2889115959 45.9438601523 2.89873 0.329596 3.93122 2.90733 0.0789723 3.94421 2.91025 -0.554976 3.90583 2.88897 0.0683438 3.9444 -8.83488 1.82949 -5.41658 -8.75478 7.18883 -4.91748 -0.0 0.0 -0.0 -1.94364 0.559847 -3.67299 12.2697 -20.657 66.2835 1.40978 -34.9272 0.443538 -33.7854 -2.31579 3.57955 2.74998 10.5313 22.5639 -0.0 0.0 -0.0 10.2947 8.54792 -20.488 -23.151 8.29532 -69.6673 0.346385 9.7367 -0.029503 -9.91874 0.453158 -1.18279 0.872188 9.44615 -1.87622 0.0 0.0 0.0 7.80864 2.30511 5.28314 0.105873 -0.00437391 -0.0156584 28.2644 -25.635 -4.35601 -40.1472 0.0 0.0 -0.0 0.0 -0.0 19.9131 2.8473 5.37679 -57.6814 1.95489 -8.26507 18.3066 -5.8215 2.51941 4.53112 -0.0 -0.0 0.0 0.0 0.0 
2844.57808734 705.157 -1618.40720126 -65.4706303974 85.1111531532 61.9026610251 2.64844 0.300432 3.97453 2.65723 0.0471182 3.98557 2.65849 -0.610486 3.93889 2.63685 0.0187356 3.9858 -9.12754 1.344 -5.93987 -9.03099 6.62038 -5.52533 -0.0 0.0 -0.0 -1.91026 -0.625941 -3.79025 13.7823 -21.3039 65.7546 1.44788 -35.6473 0.465543 -32.9505 -2.23453 3.50978 2.72139 9.60206 22.0539 -0.0 0.0 -0.0 10.2484 8.08769 -20.3871 -23.9631 7.98349 -69.479 0.293514 8.27293 -0.0212271 -9.66101 0.438812 -1.15311 0.917788 9.53603 -2.14575 0.0 0.0 0.0 5.95796 2.12811 5.67228 -0.179413 0.00734621 0.0265527 30.3002 -25.976 -4.62118 -39.5166 0.0 0.0 -0.0 0.0 -0.0 22.8796 1.79181 5.76921 -55.1935 1.70393 -7.97503 15.6871 -9.25104 2.18344 3.42995 -0.0 -0.0 0.0 0.0 0.0 
2846.89843369 705.157 -1605.05265919 -93.5400035431 85.5447929364 90.0617022225 2.64844 0.300432 3.97453 2.65723 0.0471182 3.98557 2.65849 -0.610486 3.93889 2.63685 0.0187356 3.9858 -9.12754 1.344 -5.93987 -9.03099 6.62038 -5.52533 -0.0 0.0 -0.0 -1.91026 -0.625941 -3.79025 13.7823 -21.3039 65.7546 1.44788 -35.6473 0.465543 -32.9505 -2.23453 3.50978 2.72139 9.60206 22.0539 -0.0 0.0 -0.0 10.2484 8.08769 -20.3871 -23.9631 7.98349 -69.479 0.293514 8.27293 -0.0212271 -9.66101 0.438812 -1.15311 0.917788 9.53603 -2.14575 0.0 0.0 0.0 5.95796 2.12811 5.67228 -0.179413 0.00734621 0.0265527 30.3002 -25.976 -4.62118 -39.5166 0.0 0.0 -0.0 0.0 -0.0 22.8796 1.79181 5.76921 -55.1935 1.70393 -7.97503 15.6871 -9.25104 2.18344 3.42995 -0.0 -0.0 0.0 0.0 0.0 
2843.88700419 709.751 -1585.89588509 -129.034975303 84.1052623614 125.65486191 2.64087 0.135256 3.88292 2.64924 -0.111909 3.88366 2.63965 -0.752093 3.81189 2.61941 -0.141112 3.88271 -10.3457 1.61639 -6.26168 -10.2477 7.24804 -5.6894 -0.0 0.0 -0.0 -1.75347 -2.09157 -3.70258 15.1665 -21.9133 65.1308 1.45647 -35.8079 0.47056 -32.5076 -2.19184 3.47229 2.23708 8.73763 18.4078 -0.0 0.0 -0.0 10.0709 7.02305 -19.998 -24.8285 7.5993 -68.8869 0.330943 9.31041 -0.026948 -9.63017 0.437105 -1.14955 0.856468 8.3019 -2.25871 0.0 0.0 0.0 4.7252 2.14812 6.02223 3.63413 -0.166623 -0.532619 27.8184 -25.7138 -4.30391 -40.1855 0.0 0.0 -0.0 0.0 -0.0 24.2283 2.81959 5.1846 -51.0687 1.31651 -7.47136 15.5311 -13.0092 2.17211 3.64402 -0.0 -0.0 0.0 0.0 0.0 
2799.32392512 705.117 -1553.92744099 -156.719541174 81.419179401 152.731439884 2.43531 0.138454 3.83637 2.44349 -0.105762 3.83741 2.43487 -0.751828 3.76463 2.41513 -0.148297 3.836 -10.676 2.49964 -5.26357 -10.6189 8.21905 -4.46501 -0.0 0.0 -0.0 -0.99642 -8.65446 -3.08228 18.914 -21.5263 60.4945 1.52516 -37.0692 0.511363 -32.7888 -2.21892 3.49614 -0.250999 9.96613 2.51825 -0.0 0.0 -0.0 9.40903 2.72609 -18.5263 -29.044 6.34063 -67.4462 0.397732 11.1461 -0.0388094 -10.7946 0.502907 -1.28319 0.414911 5.64157 -0.406585 0.0 0.0 0.0 -2.18771 3.81293 5.82592 5.79133 -0.281427 -0.843524 25.8518 -25.2282 -4.03058 -38.9218 0.0 0.0 -0.0 0.0 -0.0 29.5314 2.9949 4.9112 -34.1949 0.13933 -5.16887 19.5079 -18.6495 2.72387 2.65332 -0.0 -0.0 0.0 0.0 0.0 
2799.92562851 705.117 -1551.97555081 -157.471721596 81.1462041924 153.492408514 2.43531 0.138454 3.83637 2.44349 -0.105762 3.83741 2.43487 -0.751828 3.76463 2.41513 -0.148297 3.836 -10.676 2.49964 -5.26357 -10.6189 8.21905 -4.46501 -0.0 0.0 -0.0 -0.99642 -8.65446 -3.08228 18.914 -21.5263 60.4945 1.52516 -37.0692 0.511363 -32.7888 -2.21892 3.49614 -0.250999 9.96613 2.51825 -0.0 0.0 -0.0 9.40903 2.72609 -18.5263 -29.044 6.34063 -67.4462 0.397732 11.1461 -0.0388094 -10.7946 0.502907 -1.28319 0.414911 5.64157 -0.406585 0.0 0.0 0.0 -2.18771 3.81293 5.82592 5.79133 -0.281427 -0.843524 25.8518 -25.2282 -4.03058 -38.9218 0.0 0.0 -0.0 0.0 -0.0 29.5314 2.9949 4.9112 -34.1949 0.13933 -5.16887 19.5079 -18.6495 2.72387 2.65332 -0.0 -0.0 0.0 0.0 0.0 
2788.40715913 703.253 -1545.85530306 -158.802320504 81.0328362797 154.692883088 2.25586 0.327481 3.79726 2.26387 0.0853672 3.81038 2.26857 -0.569418 3.76862 2.24876 0.0324628 3.8112 -10.7722 2.23455 -4.95935 -10.7211 7.5105 -4.23055 -0.0 0.0 -0.0 -0.73286 -9.09118 -2.59339 19.8628 -21.3871 59.3404 1.61614 -38.6774 0.567221 -32.8032 -2.2203 3.49735 -1.04307 9.83956 -2.61171 -0.0 0.0 -0.0 9.55178 0.859969 -18.7664 -29.8713 6.1559 -67.1119 0.337397 9.48871 -0.0280021 -11.2104 0.527064 -1.33059 0.261304 5.86436 0.723785 0.0 0.0 0.0 -3.09544 4.01139 5.56646 5.88165 -0.286489 -0.856447 29.6959 -23.7654 -4.44478 -38.1091 0.0 0.0 -0.0 0.0 -0.0 30.2916 4.58562 4.74199 -29.1624 -0.0752359 -4.42668 20.6768 -17.374 2.86029 0.439307 -0.0 -0.0 0.0 0.0 0.0 
2773.52296004 698.978 -1543.78142283 -159.921882296 80.5310647766 155.587726109 2.2676 0.236538 3.84497 2.27582 -0.0084216 3.85222 2.27415 -0.668843 3.79381 2.25407 -0.0617519 3.85173 -10.7867 2.13619 -4.64193 -10.7425 7.11322 -3.94647 -0.0 0.0 -0.0 -0.795134 -9.22832 -2.73976 20.4863 -21.36 58.5643 1.73984 -40.7533 0.646276 -33.4553 -2.28354 3.55211 -1.47517 9.7238 -5.4416 -0.0 0.0 -0.0 9.62628 0.2291 -18.8953 -30.9021 5.86957 -67.0235 0.26096 7.36605 -0.0167979 -11.2967 0.532116 -1.3404 0.162658 5.52912 1.24683 0.0 0.0 0.0 -4.30044 4.60211 5.58444 5.1175 -0.244306 -0.746866 31.402 -22.6616 -4.59474 -37.8187 0.0 0.0 -0.0 0.0 -0.0 30.7694 5.27541 4.99596 -24.8992 -0.205409 -3.78551 21.1317 -17.5854 2.91931 -1.08847 0.0 0.0 0.0 0.0 0.0 
